<svg id="visual" viewBox="0 0 900 600" width="900" height="600" xmlns="http://www.w3.org/2000/svg" xmlns:xlink="http://www.w3.org/1999/xlink" version="1.1"><rect width="900" height="600" fill="#3bb77e"></rect><g><g transform="translate(695 495)"><path d="M62.4 14.7C62.4 59.3 31.2 118.6 -6 118.6C-43.2 118.6 -86.4 59.3 -86.4 14.7C-86.4 -29.9 -43.2 -59.9 -6 -59.9C31.2 -59.9 62.4 -29.9 62.4 14.7Z" fill="none" stroke="#53bc8b" stroke-width="20"></path></g><g transform="translate(286 278)"><path d="M62.1 -0.4C62.1 31.7 31.1 63.3 -4.4 63.3C-39.9 63.3 -79.9 31.7 -79.9 -0.4C-79.9 -32.5 -39.9 -64.9 -4.4 -64.9C31.1 -64.9 62.1 -32.5 62.1 -0.4Z" fill="none" stroke="#53bc8b" stroke-width="20"></path></g><g transform="translate(644 30)"><path d="M65.9 9.5C65.9 52.8 32.9 105.7 -0.4 105.7C-33.7 105.7 -67.4 52.8 -67.4 9.5C-67.4 -33.8 -33.7 -67.6 -0.4 -67.6C32.9 -67.6 65.9 -33.8 65.9 9.5Z" fill="none" stroke="#53bc8b" stroke-width="20"></path></g></g></svg>